<svg width="258" height="258" viewBox="0 0 258 258" fill="none" xmlns="http://www.w3.org/2000/svg">
<circle cx="129" cy="129" r="128.5" stroke="url(#paint0_linear_426_295)"/>
<g clip-path="url(#clip0_426_295)">
<path d="M157.591 71.124C151.308 71.124 145.132 72.796 139.729 75.944C136.053 78.096 132.815 80.87 130.106 84.19L128.996 85.554L127.887 84.19C125.182 80.87 121.945 78.096 118.268 75.944C112.866 72.796 106.688 71.124 100.403 71.124C81.2118 71.124 65.6728 86.608 65.0218 106.374C64.6918 116.292 67.8698 126.347 74.4608 136.276C79.6548 144.092 128.996 186.876 128.996 186.876C128.996 186.876 178.341 144.085 183.531 136.276C190.129 126.346 193.301 116.288 192.976 106.374C192.321 86.608 176.78 71.124 157.591 71.124Z" fill="#BA7729"/>
</g>
<defs>
<linearGradient id="paint0_linear_426_295" x1="194.132" y1="43.86" x2="-43.16" y2="115.967" gradientUnits="userSpaceOnUse">
<stop stop-color="#EEC355"/>
<stop offset="1" stop-color="#DD8115"/>
</linearGradient>
<clipPath id="clip0_426_295">
<rect width="128" height="128" fill="white" transform="translate(65 65)"/>
</clipPath>
</defs>
</svg>
